<svg xmlns="http://www.w3.org/2000/svg" xmlns:xlink="http://www.w3.org/1999/xlink" width="500" zoomAndPan="magnify" viewBox="0 0 375 374.999991" height="500" preserveAspectRatio="xMidYMid meet" version="1.2"><defs><clipPath id="ab296b3ee8"><path d="M 157 187 L 183 187 L 183 225 L 157 225 Z M 157 187 "/></clipPath><clipPath id="bc5fc2c70a"><path d="M 173.335938 229.339844 L 146.195312 218.433594 L 161.019531 181.550781 L 188.160156 192.457031 Z M 173.335938 229.339844 "/></clipPath><clipPath id="e43a741ead"><path d="M 173.335938 229.339844 L 146.195312 218.433594 L 161.019531 181.550781 L 188.160156 192.457031 Z M 173.335938 229.339844 "/></clipPath><clipPath id="1ebafea7ae"><path d="M 173.335938 229.335938 L 157.105469 222.8125 L 171.917969 185.953125 L 188.152344 192.476562 Z M 173.335938 229.335938 "/></clipPath><clipPath id="372ec66c4e"><path d="M 151 186 L 173 186 L 173 222 L 151 222 Z M 151 186 "/></clipPath><clipPath id="c3b4e0eb25"><path d="M 173.335938 229.339844 L 146.195312 218.433594 L 161.019531 181.550781 L 188.160156 192.457031 Z M 173.335938 229.339844 "/></clipPath><clipPath id="570a541f62"><path d="M 173.335938 229.339844 L 146.195312 218.433594 L 161.019531 181.550781 L 188.160156 192.457031 Z M 173.335938 229.339844 "/></clipPath></defs><g id="fa22e3a9d9"><g style="fill:#ffffff;fill-opacity:1;"><g transform="translate(90.876744, 165.00212)"><path style="stroke:none" d="M 5.75 -30.515625 L 17.3125 -30.515625 L 18.375 -25.1875 L 18.875 -25.1875 C 19.957031 -26.894531 21.347656 -28.335938 23.046875 -29.515625 C 24.753906 -30.703125 27.003906 -31.296875 29.796875 -31.296875 C 29.984375 -31.296875 30.28125 -31.28125 30.6875 -31.25 C 31.09375 -31.226562 31.539062 -31.15625 32.03125 -31.03125 C 32.53125 -30.914062 33.050781 -30.75 33.59375 -30.53125 C 34.132812 -30.320312 34.664062 -30.03125 35.1875 -29.65625 L 32.078125 -15.046875 L 24.34375 -15.046875 C 24.238281 -17.972656 23.972656 -20.015625 23.546875 -21.171875 C 23.128906 -22.335938 22.445312 -22.921875 21.5 -22.921875 C 21.03125 -22.921875 20.519531 -22.8125 19.96875 -22.59375 C 19.425781 -22.382812 18.875 -21.925781 18.3125 -21.21875 L 13.765625 0 L -0.703125 0 Z M 5.75 -30.515625 "/></g></g><g style="fill:#ffffff;fill-opacity:1;"><g transform="translate(121.671774, 165.00212)"><path style="stroke:none" d="M 26.46875 -30.515625 L 40.9375 -30.515625 L 34.40625 0 L 22.921875 0 L 21.640625 -4.546875 L 21.21875 -4.546875 C 19.988281 -3.078125 18.320312 -1.859375 16.21875 -0.890625 C 14.113281 0.078125 11.992188 0.5625 9.859375 0.5625 C 7.023438 0.5625 4.800781 -0.15625 3.1875 -1.59375 C 1.582031 -3.039062 0.78125 -4.921875 0.78125 -7.234375 C 0.78125 -8.421875 0.976562 -9.898438 1.375 -11.671875 C 1.78125 -13.441406 2.148438 -15.109375 2.484375 -16.671875 L 5.46875 -30.515625 L 19.859375 -30.515625 L 16.3125 -13.90625 C 16.21875 -13.53125 16.125 -13.082031 16.03125 -12.5625 C 15.9375 -12.039062 15.84375 -11.53125 15.75 -11.03125 C 15.65625 -10.53125 15.570312 -10.054688 15.5 -9.609375 C 15.425781 -9.160156 15.390625 -8.796875 15.390625 -8.515625 C 15.390625 -7.804688 15.539062 -7.203125 15.84375 -6.703125 C 16.15625 -6.203125 16.71875 -5.953125 17.53125 -5.953125 C 18.375 -5.953125 19.175781 -6.234375 19.9375 -6.796875 C 20.695312 -7.367188 21.289062 -7.914062 21.71875 -8.4375 Z M 26.46875 -30.515625 "/></g></g><g style="fill:#ffffff;fill-opacity:1;"><g transform="translate(159.704414, 165.00212)"><path style="stroke:none" d="M 19.015625 -25.96875 C 20.003906 -26.914062 21.113281 -27.789062 22.34375 -28.59375 C 23.4375 -29.257812 24.710938 -29.875 26.171875 -30.4375 C 27.640625 -31.007812 29.273438 -31.296875 31.078125 -31.296875 C 33.535156 -31.296875 35.566406 -30.664062 37.171875 -29.40625 C 38.785156 -28.15625 39.59375 -26.441406 39.59375 -24.265625 C 39.59375 -23.648438 39.519531 -22.90625 39.375 -22.03125 C 39.238281 -21.15625 39.070312 -20.242188 38.875 -19.296875 C 38.6875 -18.347656 38.484375 -17.390625 38.265625 -16.421875 C 38.054688 -15.453125 37.882812 -14.585938 37.75 -13.828125 L 34.765625 0 L 20.359375 0 L 24.265625 -18.515625 C 24.359375 -19.128906 24.472656 -19.753906 24.609375 -20.390625 C 24.753906 -21.035156 24.828125 -21.617188 24.828125 -22.140625 C 24.828125 -22.847656 24.648438 -23.425781 24.296875 -23.875 C 23.941406 -24.320312 23.410156 -24.546875 22.703125 -24.546875 C 21.847656 -24.546875 21.03125 -24.238281 20.25 -23.625 C 19.476562 -23.007812 18.878906 -22.488281 18.453125 -22.0625 L 13.765625 0 L -0.703125 0 L 5.75 -30.515625 L 17.3125 -30.515625 L 18.59375 -25.96875 Z M 19.015625 -25.96875 "/></g></g><g style="fill:#ffffff;fill-opacity:1;"><g transform="translate(125.17731, 222.601831)"><path style="stroke:none" d="M 3.265625 -30.515625 C 5.015625 -30.890625 6.550781 -31.3125 7.875 -31.78125 C 9.195312 -32.257812 10.414062 -32.851562 11.53125 -33.5625 C 12.644531 -34.269531 13.707031 -35.144531 14.71875 -36.1875 C 15.738281 -37.226562 16.835938 -38.503906 18.015625 -40.015625 L 25.328125 -40.015625 L 23.265625 -30.515625 L 28.8125 -30.515625 L 27.890625 -25.75 L 22.28125 -25.75 L 19.375 -11.921875 C 19.132812 -10.828125 18.941406 -9.851562 18.796875 -9 C 18.660156 -8.15625 18.59375 -7.5 18.59375 -7.03125 C 18.59375 -6.082031 18.929688 -5.488281 19.609375 -5.25 C 20.296875 -5.007812 21.585938 -4.890625 23.484375 -4.890625 L 22.421875 0 C 22.085938 0.09375 21.578125 0.160156 20.890625 0.203125 C 20.203125 0.253906 19.445312 0.316406 18.625 0.390625 C 17.800781 0.460938 16.953125 0.507812 16.078125 0.53125 C 15.203125 0.550781 14.429688 0.5625 13.765625 0.5625 C 12.578125 0.5625 11.414062 0.476562 10.28125 0.3125 C 9.144531 0.15625 8.128906 -0.171875 7.234375 -0.671875 C 6.335938 -1.171875 5.613281 -1.890625 5.0625 -2.828125 C 4.519531 -3.773438 4.25 -5.054688 4.25 -6.671875 C 4.25 -7.234375 4.285156 -7.941406 4.359375 -8.796875 C 4.429688 -9.648438 4.585938 -10.597656 4.828125 -11.640625 L 7.8125 -25.75 L 2.265625 -25.75 Z M 3.265625 -30.515625 "/></g></g><g style="fill:#ffffff;fill-opacity:1;"><g transform="translate(149.517152, 222.601831)"><path style="stroke:none" d=""/></g></g><g style="fill:#ffffff;fill-opacity:1;"><g transform="translate(159.592759, 222.601831)"><path style="stroke:none" d=""/></g></g><g style="fill:#ffffff;fill-opacity:1;"><g transform="translate(169.668365, 222.601831)"><path style="stroke:none" d=""/></g></g><g style="fill:#ffffff;fill-opacity:1;"><g transform="translate(179.743972, 222.601831)"><path style="stroke:none" d=""/></g></g><g style="fill:#ffffff;fill-opacity:1;"><g transform="translate(189.829649, 222.601831)"><path style="stroke:none" d="M 21.78125 -21.5625 C 21.832031 -21.800781 21.878906 -22.039062 21.921875 -22.28125 C 21.972656 -22.519531 22 -22.78125 22 -23.0625 C 22 -23.914062 21.84375 -24.707031 21.53125 -25.4375 C 21.226562 -26.164062 20.625 -26.53125 19.71875 -26.53125 C 18.914062 -26.53125 18.113281 -26.1875 17.3125 -25.5 C 16.507812 -24.820312 16.109375 -23.914062 16.109375 -22.78125 C 16.109375 -22.019531 16.304688 -21.414062 16.703125 -20.96875 C 17.109375 -20.519531 17.640625 -20.148438 18.296875 -19.859375 C 18.960938 -19.578125 19.707031 -19.34375 20.53125 -19.15625 C 21.363281 -18.96875 22.179688 -18.78125 22.984375 -18.59375 C 24.117188 -18.300781 25.195312 -17.953125 26.21875 -17.546875 C 27.238281 -17.148438 28.148438 -16.617188 28.953125 -15.953125 C 29.753906 -15.296875 30.390625 -14.484375 30.859375 -13.515625 C 31.335938 -12.546875 31.578125 -11.351562 31.578125 -9.9375 C 31.578125 -7.945312 31.113281 -6.273438 30.1875 -4.921875 C 29.269531 -3.578125 27.992188 -2.488281 26.359375 -1.65625 C 24.722656 -0.832031 22.804688 -0.257812 20.609375 0.0625 C 18.410156 0.394531 16.054688 0.5625 13.546875 0.5625 C 9.722656 0.5625 6.554688 0.28125 4.046875 -0.28125 C 1.535156 -0.851562 -0.210938 -1.398438 -1.203125 -1.921875 L 0.28125 -9.015625 L 9.859375 -9.015625 C 9.816406 -8.773438 9.796875 -8.546875 9.796875 -8.328125 C 9.796875 -8.117188 9.796875 -7.894531 9.796875 -7.65625 C 9.796875 -6.570312 10.039062 -5.707031 10.53125 -5.0625 C 11.03125 -4.425781 11.894531 -4.109375 13.125 -4.109375 C 14.5 -4.109375 15.476562 -4.5 16.0625 -5.28125 C 16.65625 -6.0625 16.953125 -6.785156 16.953125 -7.453125 C 16.953125 -8.109375 16.703125 -8.6875 16.203125 -9.1875 C 15.710938 -9.6875 15.085938 -10.113281 14.328125 -10.46875 C 13.578125 -10.820312 12.738281 -11.128906 11.8125 -11.390625 C 10.894531 -11.648438 10.007812 -11.898438 9.15625 -12.140625 C 8.539062 -12.273438 7.84375 -12.507812 7.0625 -12.84375 C 6.28125 -13.175781 5.535156 -13.648438 4.828125 -14.265625 C 4.117188 -14.878906 3.523438 -15.671875 3.046875 -16.640625 C 2.578125 -17.609375 2.34375 -18.828125 2.34375 -20.296875 C 2.34375 -22.378906 2.847656 -24.113281 3.859375 -25.5 C 4.878906 -26.894531 6.203125 -28.019531 7.828125 -28.875 C 9.460938 -29.726562 11.3125 -30.34375 13.375 -30.71875 C 15.4375 -31.101562 17.503906 -31.296875 19.578125 -31.296875 C 22.179688 -31.296875 24.640625 -31.054688 26.953125 -30.578125 C 29.273438 -30.109375 31.171875 -29.492188 32.640625 -28.734375 L 31 -21.5625 Z M 21.78125 -21.5625 "/></g></g><g style="fill:#ffffff;fill-opacity:1;"><g transform="translate(220.908505, 222.601831)"><path style="stroke:none" d="M 13.6875 0 L -0.703125 0 L 5.75 -30.515625 L 20.296875 -30.515625 Z M 22.140625 -39.8125 C 22.140625 -38.71875 21.914062 -37.769531 21.46875 -36.96875 C 21.019531 -36.164062 20.425781 -35.476562 19.6875 -34.90625 C 18.957031 -34.34375 18.117188 -33.914062 17.171875 -33.625 C 16.222656 -33.34375 15.253906 -33.203125 14.265625 -33.203125 C 12.367188 -33.203125 10.78125 -33.648438 9.5 -34.546875 C 8.226562 -35.453125 7.59375 -36.875 7.59375 -38.8125 C 7.59375 -39.851562 7.804688 -40.785156 8.234375 -41.609375 C 8.660156 -42.441406 9.238281 -43.128906 9.96875 -43.671875 C 10.695312 -44.210938 11.546875 -44.625 12.515625 -44.90625 C 13.492188 -45.195312 14.5 -45.34375 15.53125 -45.34375 C 17.382812 -45.34375 18.945312 -44.890625 20.21875 -43.984375 C 21.5 -43.085938 22.140625 -41.695312 22.140625 -39.8125 Z M 22.140625 -39.8125 "/></g></g><g style="fill:#ffffff;fill-opacity:1;"><g transform="translate(238.221721, 222.601831)"><path style="stroke:none" d="M 11.203125 11.921875 L -3.265625 11.921875 L 5.671875 -30.515625 L 17.234375 -30.515625 L 18.515625 -25.96875 L 18.9375 -25.96875 C 20.644531 -27.769531 22.550781 -29.054688 24.65625 -29.828125 C 26.757812 -30.609375 28.828125 -31 30.859375 -31 C 32.515625 -31 33.898438 -30.75 35.015625 -30.25 C 36.128906 -29.757812 37.015625 -29.085938 37.671875 -28.234375 C 38.335938 -27.390625 38.8125 -26.375 39.09375 -25.1875 C 39.375 -24.007812 39.515625 -22.753906 39.515625 -21.421875 C 39.515625 -20.765625 39.46875 -19.773438 39.375 -18.453125 C 39.28125 -17.128906 39.066406 -15.648438 38.734375 -14.015625 C 38.410156 -12.378906 37.941406 -10.695312 37.328125 -8.96875 C 36.710938 -7.25 35.894531 -5.675781 34.875 -4.25 C 33.851562 -2.832031 32.570312 -1.675781 31.03125 -0.78125 C 29.5 0.113281 27.671875 0.5625 25.546875 0.5625 C 24.359375 0.5625 23.207031 0.421875 22.09375 0.140625 C 20.988281 -0.140625 19.984375 -0.515625 19.078125 -0.984375 C 18.179688 -1.460938 17.390625 -2.019531 16.703125 -2.65625 C 16.023438 -3.300781 15.519531 -3.953125 15.1875 -4.609375 L 14.765625 -4.609375 Z M 18.734375 -6.3125 C 19.867188 -6.3125 20.8125 -6.914062 21.5625 -8.125 C 22.320312 -9.332031 22.9375 -10.75 23.40625 -12.375 C 23.882812 -14.007812 24.226562 -15.640625 24.4375 -17.265625 C 24.65625 -18.898438 24.765625 -20.125 24.765625 -20.9375 C 24.765625 -21.875 24.609375 -22.648438 24.296875 -23.265625 C 23.992188 -23.878906 23.441406 -24.1875 22.640625 -24.1875 C 21.734375 -24.1875 20.878906 -23.867188 20.078125 -23.234375 C 19.273438 -22.597656 18.6875 -22.039062 18.3125 -21.5625 L 15.53125 -8.578125 C 15.914062 -8.066406 16.367188 -7.5625 16.890625 -7.0625 C 17.410156 -6.5625 18.023438 -6.3125 18.734375 -6.3125 Z M 18.734375 -6.3125 "/></g></g><g clip-rule="nonzero" clip-path="url(#ab296b3ee8)"><g clip-rule="nonzero" clip-path="url(#bc5fc2c70a)"><g clip-rule="nonzero" clip-path="url(#e43a741ead)"><g clip-rule="nonzero" clip-path="url(#1ebafea7ae)"><path style=" stroke:none;fill-rule:nonzero;fill:#ffffff;fill-opacity:1;" d="M 172.578125 189.054688 C 172.9375 188.445312 173.414062 187.910156 173.972656 187.476562 C 173.976562 187.472656 173.980469 187.46875 173.980469 187.46875 C 174.386719 187.152344 174.917969 187.09375 175.402344 187.363281 C 181.769531 190.917969 184.5 201.5625 180.632812 211.179688 C 176.535156 221.375 167.890625 226.574219 159.382812 223.71875 C 158.710938 223.496094 158.109375 223.128906 157.527344 222.746094 C 157.246094 222.5625 157.253906 222.171875 157.546875 222.027344 C 163.792969 218.90625 167.980469 215.59375 169.933594 209.441406 C 170.632812 207.238281 170.9375 204.277344 171.003906 201.363281 C 171.082031 198.628906 170.046875 193.351562 172.578125 189.054688 "/></g></g></g></g><g clip-rule="nonzero" clip-path="url(#372ec66c4e)"><g clip-rule="nonzero" clip-path="url(#c3b4e0eb25)"><g clip-rule="nonzero" clip-path="url(#570a541f62)"><path style=" stroke:none;fill-rule:nonzero;fill:#ffffff;fill-opacity:1;" d="M 153.617188 199.960938 C 157.132812 191.214844 164.421875 185.632812 171.023438 186.074219 C 171.875 186.132812 172.328125 187.097656 171.84375 187.800781 C 171.003906 189.011719 170.257812 190.300781 169.753906 191.699219 C 167.113281 198.992188 169.507812 202.601562 167.988281 207.480469 C 166.574219 212.023438 164.414062 215.933594 158.707031 220.027344 C 158.089844 220.472656 157.421875 220.847656 156.714844 221.144531 C 156.339844 221.40625 155.796875 221.328125 155.476562 220.972656 C 151.316406 216.398438 150.371094 208.039062 153.617188 199.960938 "/></g></g></g><g style="fill:#ffffff;fill-opacity:1;"><g transform="translate(91.581699, 181.366146)"><path style="stroke:none" d="M 5.09375 -3.296875 L 3.828125 -3.296875 C 3.816406 -3.429688 3.78125 -3.550781 3.71875 -3.65625 C 3.664062 -3.757812 3.597656 -3.847656 3.515625 -3.921875 C 3.429688 -3.992188 3.328125 -4.050781 3.203125 -4.09375 C 3.085938 -4.132812 2.960938 -4.15625 2.828125 -4.15625 C 2.578125 -4.15625 2.359375 -4.09375 2.171875 -3.96875 C 1.992188 -3.84375 1.851562 -3.664062 1.75 -3.4375 C 1.65625 -3.207031 1.609375 -2.925781 1.609375 -2.59375 C 1.609375 -2.25 1.65625 -1.957031 1.75 -1.71875 C 1.851562 -1.488281 1.992188 -1.316406 2.171875 -1.203125 C 2.359375 -1.085938 2.570312 -1.03125 2.8125 -1.03125 C 2.957031 -1.03125 3.085938 -1.046875 3.203125 -1.078125 C 3.316406 -1.117188 3.414062 -1.171875 3.5 -1.234375 C 3.582031 -1.304688 3.648438 -1.390625 3.703125 -1.484375 C 3.765625 -1.585938 3.804688 -1.703125 3.828125 -1.828125 L 5.09375 -1.8125 C 5.070312 -1.582031 5.003906 -1.351562 4.890625 -1.125 C 4.785156 -0.90625 4.632812 -0.703125 4.4375 -0.515625 C 4.25 -0.335938 4.015625 -0.191406 3.734375 -0.078125 C 3.460938 0.0234375 3.148438 0.078125 2.796875 0.078125 C 2.328125 0.078125 1.90625 -0.0234375 1.53125 -0.234375 C 1.164062 -0.441406 0.875 -0.742188 0.65625 -1.140625 C 0.445312 -1.535156 0.34375 -2.019531 0.34375 -2.59375 C 0.34375 -3.164062 0.445312 -3.648438 0.65625 -4.046875 C 0.875 -4.441406 1.171875 -4.738281 1.546875 -4.9375 C 1.921875 -5.144531 2.335938 -5.25 2.796875 -5.25 C 3.109375 -5.25 3.394531 -5.203125 3.65625 -5.109375 C 3.925781 -5.023438 4.160156 -4.898438 4.359375 -4.734375 C 4.566406 -4.578125 4.734375 -4.375 4.859375 -4.125 C 4.984375 -3.882812 5.0625 -3.609375 5.09375 -3.296875 Z M 5.09375 -3.296875 "/></g></g><g style="fill:#ffffff;fill-opacity:1;"><g transform="translate(96.547754, 181.366146)"><path style="stroke:none" d="M 5.28125 -2.59375 C 5.28125 -2.019531 5.171875 -1.535156 4.953125 -1.140625 C 4.734375 -0.742188 4.4375 -0.441406 4.0625 -0.234375 C 3.6875 -0.0234375 3.269531 0.078125 2.8125 0.078125 C 2.34375 0.078125 1.921875 -0.0234375 1.546875 -0.234375 C 1.171875 -0.441406 0.875 -0.742188 0.65625 -1.140625 C 0.445312 -1.535156 0.34375 -2.019531 0.34375 -2.59375 C 0.34375 -3.164062 0.445312 -3.648438 0.65625 -4.046875 C 0.875 -4.441406 1.171875 -4.738281 1.546875 -4.9375 C 1.921875 -5.144531 2.34375 -5.25 2.8125 -5.25 C 3.269531 -5.25 3.6875 -5.144531 4.0625 -4.9375 C 4.4375 -4.738281 4.734375 -4.441406 4.953125 -4.046875 C 5.171875 -3.648438 5.28125 -3.164062 5.28125 -2.59375 Z M 4 -2.59375 C 4 -2.925781 3.953125 -3.207031 3.859375 -3.4375 C 3.765625 -3.675781 3.628906 -3.851562 3.453125 -3.96875 C 3.273438 -4.09375 3.0625 -4.15625 2.8125 -4.15625 C 2.5625 -4.15625 2.347656 -4.09375 2.171875 -3.96875 C 1.992188 -3.851562 1.851562 -3.675781 1.75 -3.4375 C 1.65625 -3.207031 1.609375 -2.925781 1.609375 -2.59375 C 1.609375 -2.25 1.65625 -1.960938 1.75 -1.734375 C 1.851562 -1.503906 1.992188 -1.328125 2.171875 -1.203125 C 2.347656 -1.085938 2.5625 -1.03125 2.8125 -1.03125 C 3.0625 -1.03125 3.273438 -1.085938 3.453125 -1.203125 C 3.628906 -1.328125 3.765625 -1.503906 3.859375 -1.734375 C 3.953125 -1.960938 4 -2.25 4 -2.59375 Z M 4 -2.59375 "/></g></g><g style="fill:#ffffff;fill-opacity:1;"><g transform="translate(101.716133, 181.366146)"><path style="stroke:none" d="M 0.390625 -5.1875 L 1.9375 -5.1875 L 3.265625 -1.96875 L 3.3125 -1.96875 L 4.640625 -5.1875 L 6.1875 -5.1875 L 6.1875 0 L 4.96875 0 L 4.96875 -3.1875 L 4.921875 -3.1875 L 3.671875 -0.03125 L 2.90625 -0.03125 L 1.65625 -3.203125 L 1.609375 -3.203125 L 1.609375 0 L 0.390625 0 Z M 0.390625 -5.1875 "/></g></g><g style="fill:#ffffff;fill-opacity:1;"><g transform="translate(107.843032, 181.366146)"><path style="stroke:none" d="M 0.390625 -5.1875 L 1.9375 -5.1875 L 3.265625 -1.96875 L 3.3125 -1.96875 L 4.640625 -5.1875 L 6.1875 -5.1875 L 6.1875 0 L 4.96875 0 L 4.96875 -3.1875 L 4.921875 -3.1875 L 3.671875 -0.03125 L 2.90625 -0.03125 L 1.65625 -3.203125 L 1.609375 -3.203125 L 1.609375 0 L 0.390625 0 Z M 0.390625 -5.1875 "/></g></g><g style="fill:#ffffff;fill-opacity:1;"><g transform="translate(113.969931, 181.366146)"><path style="stroke:none" d="M 3.53125 -5.1875 L 4.78125 -5.1875 L 4.78125 -1.84375 C 4.78125 -1.457031 4.6875 -1.117188 4.5 -0.828125 C 4.3125 -0.546875 4.050781 -0.328125 3.71875 -0.171875 C 3.394531 -0.015625 3.015625 0.0625 2.578125 0.0625 C 2.140625 0.0625 1.753906 -0.015625 1.421875 -0.171875 C 1.097656 -0.328125 0.84375 -0.546875 0.65625 -0.828125 C 0.476562 -1.117188 0.390625 -1.457031 0.390625 -1.84375 L 0.390625 -5.1875 L 1.640625 -5.1875 L 1.640625 -1.953125 C 1.640625 -1.773438 1.675781 -1.613281 1.75 -1.46875 C 1.832031 -1.332031 1.945312 -1.222656 2.09375 -1.140625 C 2.238281 -1.054688 2.398438 -1.015625 2.578125 -1.015625 C 2.765625 -1.015625 2.929688 -1.054688 3.078125 -1.140625 C 3.222656 -1.222656 3.332031 -1.332031 3.40625 -1.46875 C 3.488281 -1.613281 3.53125 -1.773438 3.53125 -1.953125 Z M 3.53125 -5.1875 "/></g></g><g style="fill:#ffffff;fill-opacity:1;"><g transform="translate(118.688137, 181.366146)"><path style="stroke:none" d="M 4.796875 -5.1875 L 4.796875 0 L 3.734375 0 L 1.671875 -2.984375 L 1.640625 -2.984375 L 1.640625 0 L 0.390625 0 L 0.390625 -5.1875 L 1.46875 -5.1875 L 3.515625 -2.203125 L 3.546875 -2.203125 L 3.546875 -5.1875 Z M 4.796875 -5.1875 "/></g></g><g style="fill:#ffffff;fill-opacity:1;"><g transform="translate(123.431628, 181.366146)"><path style="stroke:none" d="M 1.640625 -5.1875 L 1.640625 0 L 0.390625 0 L 0.390625 -5.1875 Z M 1.640625 -5.1875 "/></g></g><g style="fill:#ffffff;fill-opacity:1;"><g transform="translate(125.018845, 181.366146)"><path style="stroke:none" d="M 0.21875 -4.171875 L 0.21875 -5.1875 L 4.609375 -5.1875 L 4.609375 -4.171875 L 3.03125 -4.171875 L 3.03125 0 L 1.796875 0 L 1.796875 -4.171875 Z M 0.21875 -4.171875 "/></g></g><g style="fill:#ffffff;fill-opacity:1;"><g transform="translate(129.393099, 181.366146)"><path style="stroke:none" d="M 0.140625 -5.1875 L 1.53125 -5.1875 L 2.625 -3.015625 L 2.671875 -3.015625 L 3.765625 -5.1875 L 5.171875 -5.1875 L 3.28125 -1.734375 L 3.28125 0 L 2.03125 0 L 2.03125 -1.734375 Z M 0.140625 -5.1875 "/></g></g></g></svg>